<svg xmlns="http://www.w3.org/2000/svg" viewBox="0 0 846 204" width="846" height="204" role="img" aria-label="Language breakdown for seijikohara, led by TypeScript at 41.3%."><title>Languages</title><desc>Language breakdown for seijikohara, led by TypeScript at 41.3%.</desc><style>
text{font-family:-apple-system,BlinkMacSystemFont,'Segoe UI','Noto Sans',Helvetica,Arial,sans-serif}
.t-title{font-size:15px;font-weight:600;fill:#f0f6fc}
.t-value{font-size:28px;font-weight:600;fill:#f0f6fc}
.t-unit{font-size:14px;font-weight:400;fill:#9198a1}
.t-label{font-size:12px;fill:#9198a1}
.t-mono{font-family:ui-monospace,SFMono-Regular,'SF Mono',Menlo,Consolas,'Liberation Mono',monospace;font-size:10px;fill:#9198a1;letter-spacing:.4px}
.t-tick{font-family:ui-monospace,SFMono-Regular,'SF Mono',Menlo,Consolas,'Liberation Mono',monospace;font-size:9.5px;fill:#9198a1}
.fade{opacity:0;animation:fade .5s ease .1s forwards}
@keyframes fade{to{opacity:1}}
@keyframes rise{from{opacity:0;transform:translateY(7px)}to{opacity:1;transform:none}}
@media (prefers-reduced-motion: reduce){*{animation:none!important;opacity:1!important;transform:none!important}}
.t-name{font-size:13px;fill:#f0f6fc}</style><rect x="0.5" y="0.5" width="845" height="203" rx="6" fill="#0d1117" stroke="#3d444d"/><text x="24" y="43" class="t-title">Languages</text><text x="822" y="42" class="t-mono" text-anchor="end">PUBLIC SOURCE REPOSITORIES · BY BYTES</text><g class="fade"><clipPath id="bar-clip"><rect x="24" y="64" width="798" height="20" rx="10"/></clipPath><g clip-path="url(#bar-clip)"><rect x="24" y="64" width="322.97" height="20" fill="#3178c6"/><rect x="348.97" y="64" width="152.49" height="20" fill="#A97BFF"/><rect x="503.46" y="64" width="112.61" height="20" fill="#b07219"/><rect x="618.06" y="64" width="66.47" height="20" fill="#fcb32c"/><rect x="686.53" y="64" width="57.09" height="20" fill="#41b883"/><rect x="745.62" y="64" width="39.1" height="20" fill="#dea584"/><rect x="786.72" y="64" width="8.6" height="20" fill="#ff3e00"/><rect x="797.32" y="64" width="6.26" height="20" fill="#c6538c"/><rect x="805.58" y="64" width="16.42" height="20" fill="#9198a1"/></g><g><circle cx="29" cy="108" r="5" fill="#3178c6"/><text x="42" y="112" class="t-name">TypeScript</text><text x="270" y="112" class="t-tick" text-anchor="end">41.3%</text></g><g><circle cx="295" cy="108" r="5" fill="#A97BFF"/><text x="308" y="112" class="t-name">Kotlin</text><text x="536" y="112" class="t-tick" text-anchor="end">19.5%</text></g><g><circle cx="561" cy="108" r="5" fill="#b07219"/><text x="574" y="112" class="t-name">Java</text><text x="802" y="112" class="t-tick" text-anchor="end">14.4%</text></g><g><circle cx="29" cy="138" r="5" fill="#fcb32c"/><text x="42" y="142" class="t-name">MDX</text><text x="270" y="142" class="t-tick" text-anchor="end">8.5%</text></g><g><circle cx="295" cy="138" r="5" fill="#41b883"/><text x="308" y="142" class="t-name">Vue</text><text x="536" y="142" class="t-tick" text-anchor="end">7.3%</text></g><g><circle cx="561" cy="138" r="5" fill="#dea584"/><text x="574" y="142" class="t-name">Rust</text><text x="802" y="142" class="t-tick" text-anchor="end">5.0%</text></g><g><circle cx="29" cy="168" r="5" fill="#ff3e00"/><text x="42" y="172" class="t-name">Svelte</text><text x="270" y="172" class="t-tick" text-anchor="end">1.1%</text></g><g><circle cx="295" cy="168" r="5" fill="#c6538c"/><text x="308" y="172" class="t-name">SCSS</text><text x="536" y="172" class="t-tick" text-anchor="end">0.8%</text></g><g><circle cx="561" cy="168" r="5" fill="#9198a1"/><text x="574" y="172" class="t-name">Other</text><text x="802" y="172" class="t-tick" text-anchor="end">2.1%</text></g></g></svg>
