<svg xmlns="http://www.w3.org/2000/svg" viewBox="0 0 846 400" width="846" height="400" role="img" aria-label="GitHub overview for seijikohara: 16,194 contributions all time, 81 stars earned, 21 followers."><title>Overview</title><desc>GitHub overview for seijikohara: 16,194 contributions all time, 81 stars earned, 21 followers.</desc><style>
text{font-family:-apple-system,BlinkMacSystemFont,'Segoe UI','Noto Sans',Helvetica,Arial,sans-serif}
.t-title{font-size:15px;font-weight:600;fill:#1f2328}
.t-value{font-size:28px;font-weight:600;fill:#1f2328}
.t-unit{font-size:14px;font-weight:400;fill:#59636e}
.t-label{font-size:12px;fill:#59636e}
.t-mono{font-family:ui-monospace,SFMono-Regular,'SF Mono',Menlo,Consolas,'Liberation Mono',monospace;font-size:10px;fill:#59636e;letter-spacing:.4px}
.t-tick{font-family:ui-monospace,SFMono-Regular,'SF Mono',Menlo,Consolas,'Liberation Mono',monospace;font-size:9.5px;fill:#59636e}
.fade{opacity:0;animation:fade .5s ease .1s forwards}
@keyframes fade{to{opacity:1}}
@keyframes rise{from{opacity:0;transform:translateY(7px)}to{opacity:1;transform:none}}
@media (prefers-reduced-motion: reduce){*{animation:none!important;opacity:1!important;transform:none!important}}
.col{opacity:0;animation:rise .45s cubic-bezier(.2,.7,.3,1) forwards}</style><rect x="0.5" y="0.5" width="845" height="399" rx="6" fill="#ffffff" stroke="#d1d9e0"/><text x="24" y="43" class="t-title">Overview</text><text x="822" y="42" class="t-mono" text-anchor="end">@SEIJIKOHARA · PUBLIC ACTIVITY</text><g class="fade"><g><rect x="24" y="60" width="190.5" height="76" rx="6" fill="#f6f8fa"/><text x="40" y="86" class="t-label">Contributions (all time)</text><text x="40" y="120" class="t-value">16,194</text></g><g><rect x="226.5" y="60" width="190.5" height="76" rx="6" fill="#f6f8fa"/><text x="242.5" y="86" class="t-label">Contributions (2026)</text><text x="242.5" y="120" class="t-value">3,630</text></g><g><rect x="429" y="60" width="190.5" height="76" rx="6" fill="#f6f8fa"/><text x="445" y="86" class="t-label">Stars earned</text><text x="445" y="120" class="t-value">81</text></g><g><rect x="631.5" y="60" width="190.5" height="76" rx="6" fill="#f6f8fa"/><text x="647.5" y="86" class="t-label">Followers</text><text x="647.5" y="120" class="t-value">21</text></g><g><rect x="24" y="148" width="190.5" height="76" rx="6" fill="#f6f8fa"/><text x="40" y="174" class="t-label">Pull requests merged</text><text x="40" y="208" class="t-value">1,434</text></g><g><rect x="226.5" y="148" width="190.5" height="76" rx="6" fill="#f6f8fa"/><text x="242.5" y="174" class="t-label">Issues opened</text><text x="242.5" y="208" class="t-value">347</text></g><g><rect x="429" y="148" width="190.5" height="76" rx="6" fill="#f6f8fa"/><text x="445" y="174" class="t-label">Public repositories</text><text x="445" y="208" class="t-value">30</text></g><g><rect x="631.5" y="148" width="190.5" height="76" rx="6" fill="#f6f8fa"/><text x="647.5" y="174" class="t-label">Contributed to (recent)</text><text x="647.5" y="208" class="t-value">6</text></g></g><text x="24" y="248" class="t-mono">CONTRIBUTIONS BY YEAR</text><line x1="24" y1="360.5" x2="822" y2="360.5" stroke="#d1d9e0" stroke-width="1"/><g class="col" style="animation-delay:0ms;transform-origin:54.7px 360px"><path d="M43.69230769230769 360V358.5Q43.69230769230769 357 45.19230769230769 357H64.1923076923077Q65.6923076923077 357 65.6923076923077 358.5V360Z" fill="#40c463"/></g><g class="col" style="animation-delay:45ms;transform-origin:116.1px 360px"><path d="M105.07692307692308 360V347.6628099173554Q105.07692307692308 343.6628099173554 109.07692307692308 343.6628099173554H123.07692307692308Q127.07692307692308 343.6628099173554 127.07692307692308 347.6628099173554V360Z" fill="#40c463"/></g><g class="col" style="animation-delay:90ms;transform-origin:177.5px 360px"><path d="M166.46153846153845 360V316.5388429752066Q166.46153846153845 312.5388429752066 170.46153846153845 312.5388429752066H184.46153846153845Q188.46153846153845 312.5388429752066 188.46153846153845 316.5388429752066V360Z" fill="#40c463"/></g><g class="col" style="animation-delay:135ms;transform-origin:238.8px 360px"><path d="M227.84615384615387 360V358.5Q227.84615384615387 357 229.34615384615387 357H248.34615384615387Q249.84615384615387 357 249.84615384615387 358.5V360Z" fill="#40c463"/></g><g class="col" style="animation-delay:180ms;transform-origin:300.2px 360px"><path d="M289.2307692307692 360V349.3057851239669Q289.2307692307692 345.3057851239669 293.2307692307692 345.3057851239669H307.2307692307692Q311.2307692307692 345.3057851239669 311.2307692307692 349.3057851239669V360Z" fill="#40c463"/></g><g class="col" style="animation-delay:225ms;transform-origin:361.6px 360px"><path d="M350.6153846153846 360V341.3454545454546Q350.6153846153846 337.3454545454546 354.6153846153846 337.3454545454546H368.6153846153846Q372.6153846153846 337.3454545454546 372.6153846153846 341.3454545454546V360Z" fill="#40c463"/></g><g class="col" style="animation-delay:270ms;transform-origin:423.0px 360px"><path d="M412 360V349.0280991735537Q412 345.0280991735537 416 345.0280991735537H430Q434 345.0280991735537 434 349.0280991735537V360Z" fill="#40c463"/></g><g class="col" style="animation-delay:315ms;transform-origin:484.4px 360px"><path d="M473.3846153846154 360V356.2280991735537Q473.3846153846154 352.45619834710743 477.15651621106167 352.45619834710743H491.61271455816916Q495.3846153846154 352.45619834710743 495.3846153846154 356.2280991735537V360Z" fill="#40c463"/></g><g class="col" style="animation-delay:360ms;transform-origin:545.8px 360px"><path d="M534.7692307692308 360V357.18842975206616Q534.7692307692308 354.37685950413226 537.5808010171647 354.37685950413226H553.9576605212969Q556.7692307692308 354.37685950413226 556.7692307692308 357.18842975206616V360Z" fill="#40c463"/></g><g class="col" style="animation-delay:405ms;transform-origin:607.2px 360px"><path d="M596.1538461538462 360V346.0198347107438Q596.1538461538462 342.0198347107438 600.1538461538462 342.0198347107438H614.1538461538462Q618.1538461538462 342.0198347107438 618.1538461538462 346.0198347107438V360Z" fill="#40c463"/></g><g class="col" style="animation-delay:450ms;transform-origin:668.5px 360px"><path d="M657.5384615384615 360V301.91404958677685Q657.5384615384615 297.91404958677685 661.5384615384615 297.91404958677685H675.5384615384615Q679.5384615384615 297.91404958677685 679.5384615384615 301.91404958677685V360Z" fill="#40c463"/></g><g class="col" style="animation-delay:495ms;transform-origin:729.9px 360px"><path d="M718.923076923077 360V286.5256198347107Q718.923076923077 282.5256198347107 722.923076923077 282.5256198347107H736.923076923077Q740.923076923077 282.5256198347107 740.923076923077 286.5256198347107V360Z" fill="#40c463"/></g><g class="col" style="animation-delay:540ms;transform-origin:791.3px 360px"><path d="M780.3076923076924 360V280Q780.3076923076924 276 784.3076923076924 276H798.3076923076924Q802.3076923076924 276 802.3076923076924 280V360Z" fill="#216e39"/><text x="791.31" y="269" class="t-tick" text-anchor="middle">3,630</text></g><text x="54.69" y="376" class="t-tick" text-anchor="middle">’14</text><text x="116.08" y="376" class="t-tick" text-anchor="middle">’15</text><text x="177.46" y="376" class="t-tick" text-anchor="middle">’16</text><text x="238.85" y="376" class="t-tick" text-anchor="middle">’17</text><text x="300.23" y="376" class="t-tick" text-anchor="middle">’18</text><text x="361.62" y="376" class="t-tick" text-anchor="middle">’19</text><text x="423" y="376" class="t-tick" text-anchor="middle">’20</text><text x="484.38" y="376" class="t-tick" text-anchor="middle">’21</text><text x="545.77" y="376" class="t-tick" text-anchor="middle">’22</text><text x="607.15" y="376" class="t-tick" text-anchor="middle">’23</text><text x="668.54" y="376" class="t-tick" text-anchor="middle">’24</text><text x="729.92" y="376" class="t-tick" text-anchor="middle">’25</text><text x="791.31" y="376" class="t-tick" text-anchor="middle">’26</text></svg>
