<svg xmlns="http://www.w3.org/2000/svg" viewBox="0 0 846 400" width="846" height="400" role="img" aria-label="GitHub overview for seijikohara: 11,133 contributions all time, 81 stars earned, 21 followers."><title>Overview</title><desc>GitHub overview for seijikohara: 11,133 contributions all time, 81 stars earned, 21 followers.</desc><style>
text{font-family:-apple-system,BlinkMacSystemFont,'Segoe UI','Noto Sans',Helvetica,Arial,sans-serif}
.t-title{font-size:15px;font-weight:600;fill:#f0f6fc}
.t-value{font-size:28px;font-weight:600;fill:#f0f6fc}
.t-unit{font-size:14px;font-weight:400;fill:#9198a1}
.t-label{font-size:12px;fill:#9198a1}
.t-mono{font-family:ui-monospace,SFMono-Regular,'SF Mono',Menlo,Consolas,'Liberation Mono',monospace;font-size:10px;fill:#9198a1;letter-spacing:.4px}
.t-tick{font-family:ui-monospace,SFMono-Regular,'SF Mono',Menlo,Consolas,'Liberation Mono',monospace;font-size:9.5px;fill:#9198a1}
.fade{opacity:0;animation:fade .5s ease .1s forwards}
@keyframes fade{to{opacity:1}}
@keyframes rise{from{opacity:0;transform:translateY(7px)}to{opacity:1;transform:none}}
@media (prefers-reduced-motion: reduce){*{animation:none!important;opacity:1!important;transform:none!important}}
.col{opacity:0;animation:rise .45s cubic-bezier(.2,.7,.3,1) forwards}</style><rect x="0.5" y="0.5" width="845" height="399" rx="6" fill="#0d1117" stroke="#3d444d"/><text x="24" y="43" class="t-title">Overview</text><text x="822" y="42" class="t-mono" text-anchor="end">@SEIJIKOHARA · PUBLIC ACTIVITY</text><g class="fade"><g><rect x="24" y="60" width="190.5" height="76" rx="6" fill="#151b23"/><text x="40" y="86" class="t-label">Contributions (all time)</text><text x="40" y="120" class="t-value">11,133</text></g><g><rect x="226.5" y="60" width="190.5" height="76" rx="6" fill="#151b23"/><text x="242.5" y="86" class="t-label">Contributions (2026)</text><text x="242.5" y="120" class="t-value">3,337</text></g><g><rect x="429" y="60" width="190.5" height="76" rx="6" fill="#151b23"/><text x="445" y="86" class="t-label">Stars earned</text><text x="445" y="120" class="t-value">81</text></g><g><rect x="631.5" y="60" width="190.5" height="76" rx="6" fill="#151b23"/><text x="647.5" y="86" class="t-label">Followers</text><text x="647.5" y="120" class="t-value">21</text></g><g><rect x="24" y="148" width="190.5" height="76" rx="6" fill="#151b23"/><text x="40" y="174" class="t-label">Pull requests merged</text><text x="40" y="208" class="t-value">2,204</text></g><g><rect x="226.5" y="148" width="190.5" height="76" rx="6" fill="#151b23"/><text x="242.5" y="174" class="t-label">Issues opened</text><text x="242.5" y="208" class="t-value">610</text></g><g><rect x="429" y="148" width="190.5" height="76" rx="6" fill="#151b23"/><text x="445" y="174" class="t-label">Public repositories</text><text x="445" y="208" class="t-value">30</text></g><g><rect x="631.5" y="148" width="190.5" height="76" rx="6" fill="#151b23"/><text x="647.5" y="174" class="t-label">Contributed to (recent)</text><text x="647.5" y="208" class="t-value">6</text></g></g><text x="24" y="248" class="t-mono">CONTRIBUTIONS BY YEAR</text><line x1="24" y1="360.5" x2="822" y2="360.5" stroke="#3d444d" stroke-width="1"/><g class="col" style="animation-delay:0ms;transform-origin:54.7px 360px"><path d="M43.69230769230769 360V358.5Q43.69230769230769 357 45.19230769230769 357H64.1923076923077Q65.6923076923077 357 65.6923076923077 358.5V360Z" fill="#006d32"/></g><g class="col" style="animation-delay:45ms;transform-origin:116.1px 360px"><path d="M105.07692307692308 360V346.22834881630206Q105.07692307692308 342.22834881630206 109.07692307692308 342.22834881630206H123.07692307692308Q127.07692307692308 342.22834881630206 127.07692307692308 346.22834881630206V360Z" fill="#006d32"/></g><g class="col" style="animation-delay:90ms;transform-origin:177.5px 360px"><path d="M166.46153846153845 360V312.3715912496254Q166.46153846153845 308.3715912496254 170.46153846153845 308.3715912496254H184.46153846153845Q188.46153846153845 308.3715912496254 188.46153846153845 312.3715912496254V360Z" fill="#006d32"/></g><g class="col" style="animation-delay:135ms;transform-origin:238.8px 360px"><path d="M227.84615384615387 360V358.4015582858855Q227.84615384615387 356.80311657177106 229.44459556026834 356.80311657177106H248.2477121320394Q249.84615384615387 356.80311657177106 249.84615384615387 358.4015582858855V360Z" fill="#006d32"/></g><g class="col" style="animation-delay:180ms;transform-origin:300.2px 360px"><path d="M289.2307692307692 360V348.0155828588553Q289.2307692307692 344.0155828588553 293.2307692307692 344.0155828588553H307.2307692307692Q311.2307692307692 344.0155828588553 311.2307692307692 348.0155828588553V360Z" fill="#006d32"/></g><g class="col" style="animation-delay:225ms;transform-origin:361.6px 360px"><path d="M350.6153846153846 360V339.3563080611328Q350.6153846153846 335.3563080611328 354.6153846153846 335.3563080611328H368.6153846153846Q372.6153846153846 335.3563080611328 372.6153846153846 339.3563080611328V360Z" fill="#006d32"/></g><g class="col" style="animation-delay:270ms;transform-origin:423.0px 360px"><path d="M412 360V347.7135151333533Q412 343.7135151333533 416 343.7135151333533H430Q434 343.7135151333533 434 347.7135151333533V360Z" fill="#006d32"/></g><g class="col" style="animation-delay:315ms;transform-origin:484.4px 360px"><path d="M473.3846153846154 360V355.79382679053043Q473.3846153846154 351.79382679053043 477.3846153846154 351.79382679053043H491.3846153846154Q495.3846153846154 351.79382679053043 495.3846153846154 355.79382679053043V360Z" fill="#006d32"/></g><g class="col" style="animation-delay:360ms;transform-origin:545.8px 360px"><path d="M534.7692307692308 360V356.9415642792928Q534.7692307692308 353.88312855858555 537.827666489938 353.88312855858555H553.7107950485237Q556.7692307692308 353.88312855858555 556.7692307692308 356.9415642792928V360Z" fill="#006d32"/></g><g class="col" style="animation-delay:405ms;transform-origin:607.2px 360px"><path d="M596.1538461538462 360V350.7341923883728Q596.1538461538462 346.7341923883728 600.1538461538462 346.7341923883728H614.1538461538462Q618.1538461538462 346.7341923883728 618.1538461538462 350.7341923883728V360Z" fill="#006d32"/></g><g class="col" style="animation-delay:450ms;transform-origin:668.5px 360px"><path d="M657.5384615384615 360V349.87833383278394Q657.5384615384615 345.87833383278394 661.5384615384615 345.87833383278394H675.5384615384615Q679.5384615384615 345.87833383278394 679.5384615384615 349.87833383278394V360Z" fill="#006d32"/></g><g class="col" style="animation-delay:495ms;transform-origin:729.9px 360px"><path d="M718.923076923077 360V340.0359604435121Q718.923076923077 336.0359604435121 722.923076923077 336.0359604435121H736.923076923077Q740.923076923077 336.0359604435121 740.923076923077 340.0359604435121V360Z" fill="#006d32"/></g><g class="col" style="animation-delay:540ms;transform-origin:791.3px 360px"><path d="M780.3076923076924 360V280Q780.3076923076924 276 784.3076923076924 276H798.3076923076924Q802.3076923076924 276 802.3076923076924 280V360Z" fill="#39d353"/><text x="791.31" y="269" class="t-tick" text-anchor="middle">3,337</text></g><text x="54.69" y="376" class="t-tick" text-anchor="middle">’14</text><text x="116.08" y="376" class="t-tick" text-anchor="middle">’15</text><text x="177.46" y="376" class="t-tick" text-anchor="middle">’16</text><text x="238.85" y="376" class="t-tick" text-anchor="middle">’17</text><text x="300.23" y="376" class="t-tick" text-anchor="middle">’18</text><text x="361.62" y="376" class="t-tick" text-anchor="middle">’19</text><text x="423" y="376" class="t-tick" text-anchor="middle">’20</text><text x="484.38" y="376" class="t-tick" text-anchor="middle">’21</text><text x="545.77" y="376" class="t-tick" text-anchor="middle">’22</text><text x="607.15" y="376" class="t-tick" text-anchor="middle">’23</text><text x="668.54" y="376" class="t-tick" text-anchor="middle">’24</text><text x="729.92" y="376" class="t-tick" text-anchor="middle">’25</text><text x="791.31" y="376" class="t-tick" text-anchor="middle">’26</text></svg>
